<?xml version="1.0" encoding="utf-8"?>
<!-- Generator: Adobe Illustrator 16.0.4, SVG Export Plug-In . SVG Version: 6.00 Build 0)  -->
<!DOCTYPE svg PUBLIC "-//W3C//DTD SVG 1.1//EN" "http://www.w3.org/Graphics/SVG/1.1/DTD/svg11.dtd">
<svg version="1.1" id="レイヤー_1" xmlns="http://www.w3.org/2000/svg" xmlns:xlink="http://www.w3.org/1999/xlink" x="0px"
	 y="0px" width="1024px" height="1024px" viewBox="0 0 1024 1024" enable-background="new 0 0 1024 1024" xml:space="preserve">
<circle display="none" fill="#F7AC74" cx="512.776" cy="511.096" r="374.916"/>
<circle display="none" fill="#E88B3F" cx="513.276" cy="511.596" r="240.545"/>
<rect y="439" display="none" fill="#FFFFFF" width="513" height="148"/>
<rect x="437" y="2" display="none" fill="#FFFFFF" width="157" height="583"/>
<circle fill="#F28033" cx="512.276" cy="511.596" r="512"/>
<g>
	<path fill="#FFFFFF" d="M382.958,326.646H322.63c-5.4,0-9.83-0.633-13.317-1.898c-3.488-1.266-6.173-3.628-8.072-7.116
		c-1.898-3.473-2.841-8.367-2.841-14.695c0-6.314,0.942-14.526,2.841-24.651c1.898-10.111,3.951-18.324,6.173-24.652
		c2.222-6.328,4.837-11.306,7.847-14.934c3.009-3.628,6.483-6.089,10.449-7.355c3.951-1.266,8.62-1.898,14.02-1.898h442.745
		c11.081,0,18.52,2.377,22.316,7.13s4.754,12.67,2.855,23.751l-25.172,143.48c-1.913,10.771-7.848,18.464-17.817,23.048
		c-9.984,4.598-25.102,6.891-45.366,6.891c-20.277,0-33.496-2.292-39.67-6.905c-6.188-4.599-8.325-12.291-6.412-23.091
		l12.824-72.352H500.774L475.11,476.945h144.422c5.372,0,9.802,0.788,13.289,2.363c3.487,1.575,6.103,4.261,7.847,8.043
		c1.744,3.797,2.615,9,2.615,15.609c0,6.624-0.956,14.977-2.854,25.074c-1.898,10.096-3.951,18.365-6.173,24.834
		c-2.223,6.469-4.908,11.588-8.072,15.37c-3.178,3.797-6.736,6.469-10.701,8.044c-3.966,1.574-8.635,2.362-14.007,2.362H457.067
		l-20.433,117.899h103.093c5.372,0,9.802,0.633,13.289,1.898s6.103,3.727,7.847,7.355c1.744,3.628,2.615,8.605,2.615,14.934
		s-0.956,14.541-2.854,24.652c-1.912,10.125-3.896,18.338-5.948,24.651c-2.053,6.328-4.584,11.222-7.594,14.695
		c-3.01,3.487-6.497,5.851-10.448,7.116c-3.966,1.266-8.635,1.898-14.021,1.898H240.435c-5.386,0-9.9-0.633-13.542-1.898
		s-6.328-3.629-8.072-7.116c-1.744-3.474-2.686-8.367-2.841-14.695c-0.168-6.313,0.703-14.526,2.602-24.651
		c1.898-10.111,3.952-18.324,6.173-24.652c2.222-6.328,4.838-11.306,7.847-14.934c3.009-3.629,6.567-6.09,10.688-7.355
		c4.106-1.266,8.859-1.898,14.259-1.898h60.328L382.958,326.646z"/>
</g>
</svg>
